<svg xmlns="http://www.w3.org/2000/svg" viewBox="0 0 96 96" width="96" height="96" role="img" aria-labelledby="t">
  <title id="t">TV ekran</title>
  <defs>
    <linearGradient id="g" x1="0" y1="0" x2="1" y2="1">
      <stop offset="0" stop-color="#00D4FF"/>
      <stop offset="1" stop-color="#7C5CFF"/>
    </linearGradient>
  </defs>
  <!-- tayanch -->
  <path d="M36 84h24M48 70v14" stroke="#2B3A57" stroke-width="3" stroke-linecap="round"/>
  <!-- ekran -->
  <rect x="10" y="16" width="76" height="54" rx="6" fill="#0D1220" stroke="url(#g)" stroke-width="2"/>
  <rect x="15" y="21" width="66" height="44" rx="3" fill="#060810"/>
  <!-- sarlavha chizigʻi -->
  <rect x="20" y="25" width="30" height="3" rx="1.5" fill="#8A99B8"/>
  <!-- chaqirilgan raqam (faol) -->
  <rect x="20" y="32" width="56" height="12" rx="3" fill="url(#g)"/>
  <text x="25" y="41" font-family="ui-monospace, Menlo, monospace" font-size="8" font-weight="700" fill="#060810">A-014</text>
  <path d="M55 38h9m-3-3 3 3-3 3" stroke="#060810" stroke-width="1.5" fill="none" stroke-linecap="round" stroke-linejoin="round"/>
  <text x="72" y="41" text-anchor="end" font-family="ui-monospace, Menlo, monospace" font-size="8" font-weight="700" fill="#060810">3</text>
  <!-- keyingi raqamlar -->
  <rect x="20" y="48" width="56" height="6" rx="2" fill="#131A2B"/>
  <rect x="24" y="50" width="14" height="2" rx="1" fill="#8A99B8"/>
  <rect x="62" y="50" width="10" height="2" rx="1" fill="#8A99B8"/>
  <rect x="20" y="57" width="56" height="6" rx="2" fill="#131A2B"/>
  <rect x="24" y="59" width="14" height="2" rx="1" fill="#8A99B8"/>
  <rect x="62" y="59" width="10" height="2" rx="1" fill="#8A99B8"/>
  <!-- ovoz belgisi -->
  <path d="M80 26c2 2 2 6 0 8M83 23c4 4 4 10 0 14" stroke="#00FFB2" stroke-width="1.5" fill="none" stroke-linecap="round"/>
</svg>
